<svg width="32" height="32" viewBox="0 0 32 32" fill="none" xmlns="http://www.w3.org/2000/svg">
<path d="M15.9998 8C16.3535 8 16.6926 8.14048 16.9426 8.39052C17.1927 8.64057 17.3332 8.97971 17.3332 9.33333V17.3333C17.3332 17.687 17.1927 18.0261 16.9426 18.2761C16.6926 18.5262 16.3535 18.6667 15.9998 18.6667C15.6462 18.6667 15.3071 18.5262 15.057 18.2761C14.807 18.0261 14.6665 17.687 14.6665 17.3333V9.33333C14.6665 8.97971 14.807 8.64057 15.057 8.39052C15.3071 8.14048 15.6462 8 15.9998 8Z" fill="#19B959"/>
<path d="M15.9998 21.3333C15.6462 21.3333 15.3071 21.4737 15.057 21.7238C14.807 21.9738 14.6665 22.313 14.6665 22.6666C14.6665 23.0202 14.807 23.3593 15.057 23.6094C15.3071 23.8594 15.6462 23.9999 15.9998 23.9999C16.3535 23.9999 16.6926 23.8594 16.9426 23.6094C17.1927 23.3593 17.3332 23.0202 17.3332 22.6666C17.3332 22.313 17.1927 21.9738 16.9426 21.7238C16.6926 21.4737 16.3535 21.3333 15.9998 21.3333Z" fill="#19B959"/>
<path fill-rule="evenodd" clip-rule="evenodd" d="M15.9998 2.66663C8.63584 2.66663 2.6665 8.63596 2.6665 16C2.6665 23.364 8.63584 29.3333 15.9998 29.3333C23.3638 29.3333 29.3332 23.364 29.3332 16C29.3332 8.63596 23.3638 2.66663 15.9998 2.66663ZM5.33317 16C5.33317 18.8289 6.45698 21.542 8.45737 23.5424C10.4578 25.5428 13.1709 26.6666 15.9998 26.6666C18.8288 26.6666 21.5419 25.5428 23.5423 23.5424C25.5427 21.542 26.6665 18.8289 26.6665 16C26.6665 13.171 25.5427 10.4579 23.5423 8.45749C21.5419 6.4571 18.8288 5.33329 15.9998 5.33329C13.1709 5.33329 10.4578 6.4571 8.45737 8.45749C6.45698 10.4579 5.33317 13.171 5.33317 16Z" fill="#19B959"/>
</svg>
