<svg width="28" height="28" viewBox="0 0 28 28" fill="none" xmlns="http://www.w3.org/2000/svg">
<path d="M13.9998 6C14.3535 6 14.6926 6.14048 14.9426 6.39052C15.1927 6.64057 15.3332 6.97971 15.3332 7.33333V15.3333C15.3332 15.687 15.1927 16.0261 14.9426 16.2761C14.6926 16.5262 14.3535 16.6667 13.9998 16.6667C13.6462 16.6667 13.3071 16.5262 13.057 16.2761C12.807 16.0261 12.6665 15.687 12.6665 15.3333V7.33333C12.6665 6.97971 12.807 6.64057 13.057 6.39052C13.3071 6.14048 13.6462 6 13.9998 6Z" fill="#EE1515"/>
<path d="M13.9998 19.3334C13.6462 19.3334 13.3071 19.4738 13.057 19.7239C12.807 19.9739 12.6665 20.3131 12.6665 20.6667C12.6665 21.0203 12.807 21.3595 13.057 21.6095C13.3071 21.8596 13.6462 22 13.9998 22C14.3535 22 14.6926 21.8596 14.9426 21.6095C15.1927 21.3595 15.3332 21.0203 15.3332 20.6667C15.3332 20.3131 15.1927 19.9739 14.9426 19.7239C14.6926 19.4738 14.3535 19.3334 13.9998 19.3334Z" fill="#EE1515"/>
<path fill-rule="evenodd" clip-rule="evenodd" d="M13.9998 0.666687C6.63584 0.666687 0.666504 6.63602 0.666504 14C0.666504 21.364 6.63584 27.3334 13.9998 27.3334C21.3638 27.3334 27.3332 21.364 27.3332 14C27.3332 6.63602 21.3638 0.666687 13.9998 0.666687ZM3.33317 14C3.33317 16.829 4.45698 19.5421 6.45737 21.5425C8.45775 23.5429 11.1709 24.6667 13.9998 24.6667C16.8288 24.6667 19.5419 23.5429 21.5423 21.5425C23.5427 19.5421 24.6665 16.829 24.6665 14C24.6665 11.171 23.5427 8.45794 21.5423 6.45755C19.5419 4.45716 16.8288 3.33335 13.9998 3.33335C11.1709 3.33335 8.45775 4.45716 6.45737 6.45755C4.45698 8.45794 3.33317 11.171 3.33317 14Z" fill="#EE1515"/>
</svg>
