<svg width="19" height="16" viewBox="0 0 19 16" fill="none" xmlns="http://www.w3.org/2000/svg">
<path d="M13.7881 10.344C14.86 9.02267 15.3401 7.38447 15.1323 5.75713C14.9246 4.12979 14.0443 2.63332 12.6675 1.56711C11.2908 0.500899 9.51918 -0.056418 7.7071 0.00665514C5.89502 0.0697283 4.17612 0.748541 2.89429 1.90729C1.61247 3.06603 0.862244 4.61926 0.793718 6.25621C0.725192 7.89317 1.34342 9.49314 2.52471 10.736C3.706 11.9789 5.36323 12.773 7.16487 12.9596C8.9665 13.1461 10.7797 12.7112 12.2416 11.742H12.2405C12.2737 11.782 12.3091 11.82 12.349 11.857L16.611 15.707C16.8185 15.8946 17.1001 16.0001 17.3938 16.0002C17.6874 16.0003 17.9691 15.895 18.1768 15.7075C18.3846 15.52 18.5013 15.2656 18.5014 15.0003C18.5015 14.7351 18.385 14.4806 18.1774 14.293L13.9154 10.443C13.8758 10.4068 13.8333 10.3734 13.7881 10.343V10.344ZM14.0737 6.49998C14.0737 7.22225 13.9162 7.93745 13.6102 8.60474C13.3043 9.27203 12.8558 9.87834 12.2904 10.3891C11.725 10.8998 11.0538 11.3049 10.3151 11.5813C9.57643 11.8577 8.7847 12 7.98514 12C7.18558 12 6.39385 11.8577 5.65515 11.5813C4.91645 11.3049 4.24525 10.8998 3.67988 10.3891C3.1145 9.87834 2.66602 9.27203 2.36004 8.60474C2.05406 7.93745 1.89658 7.22225 1.89658 6.49998C1.89658 5.04129 2.53805 3.64234 3.67988 2.61089C4.8217 1.57944 6.37035 0.999979 7.98514 0.999979C9.59993 0.999979 11.1486 1.57944 12.2904 2.61089C13.4322 3.64234 14.0737 5.04129 14.0737 6.49998Z" fill="black"/>
</svg>
